<svg width="36" height="36" viewBox="0 0 36 36" fill="none" xmlns="http://www.w3.org/2000/svg">
	<path d="M29.25 0C31.1094 0 32.6992 0.660156 34.0195 1.98047C35.3398 3.30078 36 4.89062 36 6.75V29.25C36 31.1094 35.3398 32.6992 34.0195 34.0195C32.6992 35.3398 31.1094 36 29.25 36H24.8437V22.0547H29.5078L30.2109 16.6172H24.8437V13.1484C24.8437 12.2734 25.0273 11.6172 25.3945 11.1797C25.7617 10.7422 26.4766 10.5234 27.5391 10.5234L30.3984 10.5V5.64844C29.4141 5.50781 28.0234 5.4375 26.2266 5.4375C24.1016 5.4375 22.4023 6.0625 21.1289 7.3125C19.8555 8.5625 19.2187 10.3281 19.2187 12.6094V16.6172H14.5312V22.0547H19.2187V36H6.75C4.89062 36 3.30078 35.3398 1.98047 34.0195C0.660156 32.6992 0 31.1094 0 29.25V6.75C0 4.89062 0.660156 3.30078 1.98047 1.98047C3.30078 0.660156 4.89062 0 6.75 0H29.25Z" fill="white"/>
</svg>
