<svg width="36" height="36" viewBox="0 0 36 36" fill="none" xmlns="http://www.w3.org/2000/svg">
	<path d="M27.345 6.555C26.9297 6.555 26.5236 6.67816 26.1783 6.90891C25.833 7.13967 25.5638 7.46764 25.4049 7.85137C25.2459 8.23509 25.2043 8.65733 25.2854 9.06469C25.3664 9.47205 25.5664 9.84623 25.8601 10.1399C26.1538 10.4336 26.528 10.6336 26.9353 10.7146C27.3427 10.7957 27.7649 10.7541 28.1486 10.5951C28.5324 10.4362 28.8603 10.167 29.0911 9.8217C29.3218 9.47635 29.445 9.07034 29.445 8.655C29.445 8.09805 29.2238 7.5639 28.8299 7.17008C28.4361 6.77625 27.902 6.555 27.345 6.555ZM35.395 10.79C35.361 9.33802 35.089 7.90145 34.59 6.5375C34.145 5.37048 33.4525 4.31374 32.56 3.44C31.6934 2.543 30.6342 1.85481 29.4625 1.4275C28.1021 0.913281 26.664 0.635117 25.21 0.605C23.355 0.5 22.76 0.5 18 0.5C13.24 0.5 12.645 0.5 10.79 0.605C9.33602 0.635117 7.89785 0.913281 6.5375 1.4275C5.36793 1.85913 4.30963 2.54673 3.44 3.44C2.543 4.30656 1.85481 5.36577 1.4275 6.5375C0.913281 7.89785 0.635117 9.33602 0.605 10.79C0.5 12.645 0.5 13.24 0.5 18C0.5 22.76 0.5 23.355 0.605 25.21C0.635117 26.664 0.913281 28.1021 1.4275 29.4625C1.85481 30.6342 2.543 31.6934 3.44 32.56C4.30963 33.4533 5.36793 34.1409 6.5375 34.5725C7.89785 35.0867 9.33602 35.3649 10.79 35.395C12.645 35.5 13.24 35.5 18 35.5C22.76 35.5 23.355 35.5 25.21 35.395C26.664 35.3649 28.1021 35.0867 29.4625 34.5725C30.6342 34.1452 31.6934 33.457 32.56 32.56C33.4564 31.6895 34.1496 30.6318 34.59 29.4625C35.089 28.0985 35.361 26.662 35.395 25.21C35.395 23.355 35.5 22.76 35.5 18C35.5 13.24 35.5 12.645 35.395 10.79ZM32.245 25C32.2323 26.1108 32.0311 27.2115 31.65 28.255C31.3706 29.0166 30.9218 29.7047 30.3375 30.2675C29.7699 30.8459 29.0831 31.2938 28.325 31.58C27.2815 31.9611 26.1809 32.1623 25.07 32.175C23.32 32.2625 22.6725 32.28 18.07 32.28C13.4675 32.28 12.82 32.28 11.07 32.175C9.91656 32.1966 8.76804 32.019 7.675 31.65C6.95012 31.3491 6.29487 30.9024 5.75 30.3375C5.16916 29.7753 4.72598 29.0866 4.455 28.325C4.02775 27.2665 3.79078 26.1409 3.755 25C3.755 23.25 3.65 22.6025 3.65 18C3.65 13.3975 3.65 12.75 3.755 11C3.76284 9.86435 3.97016 8.7389 4.3675 7.675C4.67558 6.93634 5.14846 6.2779 5.75 5.75C6.28167 5.14829 6.93875 4.67042 7.675 4.35C8.74171 3.96508 9.866 3.76389 11 3.755C12.75 3.755 13.3975 3.65 18 3.65C22.6025 3.65 23.25 3.65 25 3.755C26.1108 3.76774 27.2115 3.96893 28.255 4.35C29.0503 4.64514 29.764 5.12498 30.3375 5.75C30.911 6.28756 31.3591 6.94478 31.65 7.675C32.0389 8.74063 32.2403 9.86561 32.245 11C32.3325 12.75 32.35 13.3975 32.35 18C32.35 22.6025 32.3325 23.25 32.245 25ZM18 9.0225C16.2252 9.02596 14.4912 9.55542 13.0171 10.544C11.5431 11.5325 10.3952 12.9358 9.71836 14.5766C9.04156 16.2173 8.86627 18.0218 9.21464 19.7621C9.56301 21.5024 10.4194 23.1004 11.6756 24.3542C12.9319 25.608 14.5315 26.4613 16.2725 26.8063C18.0135 27.1512 19.8177 26.9724 21.4571 26.2924C23.0965 25.6124 24.4975 24.4618 25.4832 22.9858C26.4689 21.5098 26.995 19.7748 26.995 18C26.9973 16.8189 26.7661 15.6491 26.3147 14.5577C25.8632 13.4663 25.2005 12.4749 24.3645 11.6406C23.5286 10.8063 22.5359 10.1454 21.4436 9.69613C20.3514 9.24682 19.1811 9.01788 18 9.0225ZM18 23.8275C16.8474 23.8275 15.7207 23.4857 14.7624 22.8454C13.8041 22.2051 13.0572 21.2949 12.6161 20.2301C12.175 19.1653 12.0596 17.9935 12.2845 16.8631C12.5093 15.7327 13.0643 14.6943 13.8793 13.8793C14.6943 13.0643 15.7327 12.5093 16.8631 12.2845C17.9935 12.0596 19.1653 12.175 20.2301 12.6161C21.2949 13.0572 22.2051 13.8041 22.8454 14.7624C23.4857 15.7207 23.8275 16.8474 23.8275 18C23.8275 18.7653 23.6768 19.5231 23.3839 20.2301C23.091 20.9371 22.6618 21.5795 22.1207 22.1207C21.5795 22.6618 20.9371 23.091 20.2301 23.3839C19.5231 23.6768 18.7653 23.8275 18 23.8275Z" fill="white"/>
</svg>
