<svg width="40" height="34" viewBox="0 0 40 34" fill="none" xmlns="http://www.w3.org/2000/svg">
	<path d="M39.2346 2.91286C39.2348 2.60375 39.1531 2.30011 38.9978 2.03286C38.8425 1.76561 38.6191 1.5443 38.3504 1.39146C38.0817 1.23863 37.7773 1.15973 37.4682 1.1628C37.1592 1.16587 36.8564 1.2508 36.5908 1.40895C35.5665 2.01862 34.4637 2.48552 33.3131 2.7967C31.6698 1.3866 29.5739 0.614976 27.4086 0.622863C25.0331 0.625597 22.7516 1.5514 21.0459 3.20478C19.3403 4.85816 18.3439 7.10969 18.2672 9.48395C13.5842 8.73716 9.33982 6.29287 6.3435 2.6172C6.16296 2.39816 5.9324 2.22575 5.67125 2.1145C5.41011 2.00326 5.12604 1.95645 4.84301 1.97801C4.56014 2.0013 4.2872 2.09315 4.0478 2.2456C3.80839 2.39806 3.60973 2.60654 3.46898 2.85301C2.74715 4.11268 2.33259 5.52484 2.25894 6.9748C2.1853 8.42476 2.45466 9.87165 3.04515 11.198L3.04174 11.2014C2.77634 11.3648 2.55732 11.5937 2.40562 11.8659C2.25392 12.1382 2.17461 12.4449 2.17528 12.7566C2.17206 13.0137 2.18749 13.2707 2.22142 13.5256C2.40016 15.7276 3.37604 17.7887 4.96605 19.3225C4.85819 19.528 4.79236 19.7529 4.7724 19.9841C4.75245 20.2153 4.77877 20.4482 4.84984 20.6692C5.54304 22.8289 7.01721 24.6523 8.98388 25.7824C6.9858 26.5551 4.82836 26.8245 2.70164 26.5669C2.30802 26.5175 1.90929 26.6033 1.57088 26.8103C1.23246 27.0173 0.974438 27.3332 0.839143 27.7061C0.703848 28.0791 0.69931 28.4869 0.826273 28.8628C0.953237 29.2386 1.20416 29.5601 1.53789 29.7746C5.19556 32.1304 9.45433 33.3829 13.805 33.3823C18.7387 33.4378 23.5524 31.8613 27.4974 28.8979C31.4424 25.9345 34.2974 21.7504 35.6184 16.9965C36.2363 14.9256 36.5517 12.7763 36.555 10.6152C36.555 10.5007 36.555 10.3828 36.5532 10.2649C37.4669 9.27954 38.1747 8.12169 38.6352 6.85923C39.0956 5.59677 39.2994 4.2551 39.2346 2.91286ZM33.448 8.5337C33.1589 8.87556 33.0127 9.3156 33.0395 9.76246C33.0566 10.0512 33.0549 10.3417 33.0549 10.6152C33.0513 12.4414 32.7837 14.2575 32.2602 16.0071C31.1814 20.052 28.7763 23.6179 25.4301 26.1336C22.084 28.6494 17.9904 29.9694 13.805 29.8823C12.3015 29.8828 10.8032 29.7061 9.34112 29.356C11.2056 28.7551 12.9489 27.8288 14.4903 26.6199C14.7742 26.3964 14.982 26.0905 15.0851 25.7442C15.1882 25.3979 15.1817 25.0281 15.0663 24.6857C14.951 24.3433 14.7325 24.0449 14.4409 23.8316C14.1493 23.6182 13.7988 23.5004 13.4375 23.4942C11.9829 23.4715 10.594 22.8852 9.56322 21.8587C9.8247 21.8091 10.0845 21.7476 10.3425 21.6741C10.7205 21.5665 11.0514 21.3348 11.2817 21.0163C11.512 20.6979 11.6285 20.3111 11.6123 19.9184C11.5961 19.5257 11.4482 19.1499 11.1925 18.8515C10.9367 18.553 10.588 18.3493 10.2024 18.2732C9.35808 18.1065 8.56359 17.7473 7.88069 17.2235C7.19778 16.6998 6.64486 16.0256 6.26489 15.2534C6.58116 15.2966 6.89946 15.3234 7.2185 15.3337C7.59752 15.3395 7.96854 15.2245 8.2779 15.0055C8.58727 14.7864 8.81895 14.4746 8.93945 14.1152C9.05491 13.7526 9.04897 13.3622 8.92252 13.0032C8.79608 12.6442 8.55603 12.3362 8.23876 12.126C7.46902 11.6132 6.83849 10.9175 6.40364 10.1012C5.96878 9.28484 5.74319 8.37341 5.74706 7.44851C5.74706 7.33231 5.75047 7.21609 5.75732 7.10159C9.67952 10.7595 14.7669 12.9159 20.1231 13.1907C20.3934 13.2013 20.6627 13.1504 20.9105 13.0418C21.1583 12.9331 21.3782 12.7696 21.5535 12.5635C21.7271 12.3554 21.85 12.1099 21.9125 11.8463C21.9751 11.5826 21.9756 11.3081 21.914 11.0442C21.8139 10.6266 21.7629 10.1987 21.7619 9.76931C21.7635 8.27224 22.3589 6.83695 23.4175 5.77837C24.4761 4.71979 25.9114 4.12439 27.4084 4.12281C28.1787 4.12075 28.941 4.27838 29.6472 4.58577C30.3535 4.89315 30.9883 5.34361 31.5117 5.9087C31.7135 6.12585 31.9676 6.28774 32.2497 6.37899C32.5317 6.47024 32.8325 6.4878 33.1232 6.43001C33.8421 6.29011 34.5507 6.10169 35.2441 5.86606C34.7711 6.83376 34.1667 7.73146 33.448 8.5337Z" fill="white"/>
</svg>
