<svg width="36" height="36" viewBox="0 0 36 36" fill="none" xmlns="http://www.w3.org/2000/svg">
	<path d="M23.3776 0.5H12.6406C2.83329 0.5 0.5 2.83329 0.5 12.6224V23.3594C0.5 33.1666 2.81515 35.5 12.6224 35.5H23.3594C33.1667 35.5 35.5 33.1849 35.5 23.3775V12.6406C35.5 2.83329 33.1849 0.5 23.3776 0.5ZM28.7552 25.4739H26.2031C25.237 25.4739 24.9453 24.69 23.2136 22.9583C21.7005 21.5 21.0625 21.3177 20.6797 21.3177C20.1511 21.3177 20.0052 21.4635 20.0052 22.1927V24.4895C20.0052 25.1094 19.8047 25.4739 18.1823 25.4739C16.608 25.3681 15.0813 24.8899 13.728 24.0785C12.3747 23.2672 11.2336 22.146 10.3984 20.8072C8.41587 18.3396 7.03644 15.4434 6.36983 12.3489C6.36983 11.9661 6.51562 11.6197 7.24483 11.6197H9.79688C10.4531 11.6197 10.6901 11.9114 10.9453 12.5859C12.1849 16.2317 14.2995 19.4036 15.1562 19.4036C15.4844 19.4036 15.6302 19.2578 15.6302 18.4375V14.6822C15.5208 12.9688 14.6094 12.8229 14.6094 12.2031C14.6214 12.0396 14.6966 11.8872 14.8192 11.7783C14.9417 11.6694 15.1018 11.6125 15.2656 11.6197H19.2761C19.823 11.6197 20.0052 11.8932 20.0052 12.5494V17.6172C20.0052 18.1641 20.2422 18.3463 20.4062 18.3463C20.7344 18.3463 20.9895 18.1641 21.5911 17.5625C22.8838 15.9861 23.94 14.2298 24.7266 12.3489C24.8068 12.1226 24.959 11.9288 25.1598 11.7971C25.3606 11.6654 25.599 11.6031 25.8386 11.6197H28.3906C29.1562 11.6197 29.3203 12.0025 29.1562 12.5494C28.2276 14.629 27.0787 16.6029 25.7292 18.4375C25.4558 18.8567 25.3464 19.0755 25.7292 19.5677C25.9844 19.9505 26.8776 20.6979 27.4792 21.4088C28.3542 22.2816 29.0807 23.2914 29.6302 24.3984C29.8489 25.1094 29.4844 25.4739 28.7552 25.4739Z" fill="white"/>
</svg>
